<svg width="47" height="47" viewBox="0 0 47 47" fill="none" xmlns="http://www.w3.org/2000/svg">
<circle cx="23.5" cy="23.5" r="22.75" stroke="#F6FCFF" stroke-width="1.5"/>
<path d="M31 23.75C31.4142 23.75 31.75 23.4142 31.75 23C31.75 22.5858 31.4142 22.25 31 22.25V23.75ZM15.4697 22.4697C15.1768 22.7626 15.1768 23.2374 15.4697 23.5303L20.2426 28.3033C20.5355 28.5962 21.0104 28.5962 21.3033 28.3033C21.5962 28.0104 21.5962 27.5355 21.3033 27.2426L17.0607 23L21.3033 18.7574C21.5962 18.4645 21.5962 17.9896 21.3033 17.6967C21.0104 17.4038 20.5355 17.4038 20.2426 17.6967L15.4697 22.4697ZM31 22.25L16 22.25V23.75L31 23.75V22.25Z" fill="#F6FCFF"/>
</svg>
